<svg xmlns="http://www.w3.org/2000/svg" xmlns:xlink="http://www.w3.org/1999/xlink" version="1.1" width="256" height="256" viewBox="0 0 256 256" xml:space="preserve">
<desc>Created with Fabric.js 1.7.22</desc>
<defs>
</defs>
<g transform="translate(128 128) scale(0.72 0.72)" style="">
	<g style="stroke: none; stroke-width: 0; stroke-dasharray: none; stroke-linecap: butt; stroke-linejoin: miter; stroke-miterlimit: 10; fill: none; fill-rule: nonzero; opacity: 1;" transform="translate(-175.05 -175.05000000000004) scale(3.89 3.89)" >
	<path d="M 86.554 26.164 v 58.519 c 0 2.937 -2.381 5.317 -5.317 5.317 H 22.076 c -2.937 0 -5.317 -2.381 -5.317 -5.317 V 71.549 V 5.317 C 16.759 2.381 19.139 0 22.076 0 h 38.315 C 68.66 0.135 86.554 16.011 86.554 26.164 z" style="stroke: none; stroke-width: 1; stroke-dasharray: none; stroke-linecap: butt; stroke-linejoin: miter; stroke-miterlimit: 10; fill: rgb(226,226,226); fill-rule: nonzero; opacity: 1;" transform=" matrix(1 0 0 1 0 0) " stroke-linecap="round" />
	<path d="M 16.833 21.859 H 57.1 c 3.218 0 5.827 2.609 5.827 5.827 v 18.341 c 0 3.218 -2.609 5.827 -5.827 5.827 H 9.273 c -3.218 0 -5.827 -2.609 -5.827 -5.827 V 16.032" style="stroke: none; stroke-width: 1; stroke-dasharray: none; stroke-linecap: butt; stroke-linejoin: miter; stroke-miterlimit: 10; fill: rgb(241,86,66); fill-rule: nonzero; opacity: 1;" transform=" matrix(1 0 0 1 0 0) " stroke-linecap="round" />
	<path d="M 3.446 16.032 c 0 3.218 2.609 5.827 5.827 5.827 h 7.56 V 10.552 h -7.56 c -3.218 0 -5.827 2.609 -5.827 5.827" style="stroke: none; stroke-width: 1; stroke-dasharray: none; stroke-linecap: butt; stroke-linejoin: miter; stroke-miterlimit: 10; fill: rgb(190,64,48); fill-rule: nonzero; opacity: 1;" transform=" matrix(1 0 0 1 0 0) " stroke-linecap="round" />
	<path d="M 60.391 0 h 6.662 c 2.826 0 5.536 1.123 7.534 3.121 l 8.847 8.847 c 1.998 1.998 3.121 4.708 3.121 7.534 v 6.662 c 0 -3.419 -2.772 -6.19 -6.19 -6.19 h -7.866 c -3.268 0 -5.917 -2.649 -5.917 -5.917 c 0 0 0 -7.866 0 -7.866 v 0 C 66.581 2.772 63.81 0 60.391 0 C 60.391 0 60.391 0 60.391 0 z" style="stroke: none; stroke-width: 1; stroke-dasharray: none; stroke-linecap: butt; stroke-linejoin: miter; stroke-miterlimit: 10; fill: rgb(183,183,183); fill-rule: nonzero; opacity: 1;" transform=" matrix(1 0 0 1 0 0) " stroke-linecap="round" />
	<path d="M 20.708 27.68 h -5.489 c -0.829 0 -1.5 0.671 -1.5 1.5 v 9.1 v 6.231 c 0 0.829 0.671 1.5 1.5 1.5 s 1.5 -0.671 1.5 -1.5 V 39.78 h 3.989 c 2.272 0 4.122 -1.849 4.122 -4.121 v -3.858 C 24.829 29.529 22.98 27.68 20.708 27.68 z M 21.829 35.659 c 0 0.618 -0.503 1.121 -1.122 1.121 h -3.989 v -6.1 h 3.989 c 0.619 0 1.122 0.503 1.122 1.121 V 35.659 z" style="stroke: none; stroke-width: 1; stroke-dasharray: none; stroke-linecap: butt; stroke-linejoin: miter; stroke-miterlimit: 10; fill: rgb(255,255,255); fill-rule: nonzero; opacity: 1;" transform=" matrix(1 0 0 1 0 0) " stroke-linecap="round" />
	<path d="M 34.554 27.68 h -5.22 c -0.829 0 -1.5 0.671 -1.5 1.5 v 15.332 c 0 0.829 0.671 1.5 1.5 1.5 h 5.22 c 2.421 0 4.391 -1.97 4.391 -4.391 v -9.55 C 38.945 29.65 36.976 27.68 34.554 27.68 z M 35.945 41.621 c 0 0.767 -0.624 1.391 -1.391 1.391 h -3.72 V 30.68 h 3.72 c 0.767 0 1.391 0.624 1.391 1.391 V 41.621 z" style="stroke: none; stroke-width: 1; stroke-dasharray: none; stroke-linecap: butt; stroke-linejoin: miter; stroke-miterlimit: 10; fill: rgb(255,255,255); fill-rule: nonzero; opacity: 1;" transform=" matrix(1 0 0 1 0 0) " stroke-linecap="round" />
	<path d="M 51.841 27.68 h -8.11 c -0.829 0 -1.5 0.671 -1.5 1.5 v 15.332 c 0 0.829 0.671 1.5 1.5 1.5 s 1.5 -0.671 1.5 -1.5 v -6.166 h 3.812 c 0.828 0 1.5 -0.671 1.5 -1.5 s -0.672 -1.5 -1.5 -1.5 H 45.23 V 30.68 h 6.61 c 0.828 0 1.5 -0.671 1.5 -1.5 S 52.669 27.68 51.841 27.68 z" style="stroke: none; stroke-width: 1; stroke-dasharray: none; stroke-linecap: butt; stroke-linejoin: miter; stroke-miterlimit: 10; fill: rgb(255,255,255); fill-rule: nonzero; opacity: 1;" transform=" matrix(1 0 0 1 0 0) " stroke-linecap="round" />
	<path d="M 45.142 72.219 c -0.587 -0.586 -1.536 -0.586 -2.122 0 l -5.248 5.248 V 61.825 c 0 -0.828 -0.671 -1.5 -1.5 -1.5 s -1.5 0.672 -1.5 1.5 v 15.642 l -5.248 -5.248 c -0.586 -0.586 -1.535 -0.586 -2.121 0 s -0.586 1.535 0 2.121 l 6.323 6.323 c 0.625 0.625 1.424 0.955 2.243 1.024 c 0.098 0.02 0.2 0.031 0.304 0.031 s 0.206 -0.011 0.304 -0.031 c 0.818 -0.069 1.618 -0.399 2.243 -1.024 l 6.323 -6.323 C 45.727 73.754 45.727 72.805 45.142 72.219 z" style="stroke: none; stroke-width: 1; stroke-dasharray: none; stroke-linecap: butt; stroke-linejoin: miter; stroke-miterlimit: 10; fill: rgb(183,183,183); fill-rule: nonzero; opacity: 1;" transform=" matrix(1 0 0 1 0 0) " stroke-linecap="round" />
</g>
</g>
</svg>